<?xml version="1.0" encoding="UTF-8" standalone="no"?>
<!-- Created with Inkscape (http://www.inkscape.org/) -->

<svg
   xmlns:dc="http://purl.org/dc/elements/1.1/"
   xmlns:cc="http://creativecommons.org/ns#"
   xmlns:rdf="http://www.w3.org/1999/02/22-rdf-syntax-ns#"
   xmlns:svg="http://www.w3.org/2000/svg"
   xmlns="http://www.w3.org/2000/svg"
   xmlns:sodipodi="http://sodipodi.sourceforge.net/DTD/sodipodi-0.dtd"
   xmlns:inkscape="http://www.inkscape.org/namespaces/inkscape"
   width="35.43351mm"
   height="50.799999mm"
   viewBox="0 0 125.55181 179.99999"
   id="svg15624"
   version="1.1"
   inkscape:version="0.91 r13725"
   sodipodi:docname="java-and-javascript.svg">
  <defs
     id="defs15626">
    <filter
       style="color-interpolation-filters:sRGB"
       inkscape:label="Drop Shadow"
       id="filter14447">
      <feFlood
         flood-opacity="0.635294"
         flood-color="rgb(10,10,10)"
         result="flood"
         id="feFlood14449" />
      <feComposite
         in="flood"
         in2="SourceGraphic"
         operator="in"
         result="composite1"
         id="feComposite14451" />
      <feGaussianBlur
         in="composite1"
         stdDeviation="3"
         result="blur"
         id="feGaussianBlur14453" />
      <feOffset
         dx="-6.38378e-16"
         dy="6"
         result="offset"
         id="feOffset14455" />
      <feComposite
         in="SourceGraphic"
         in2="offset"
         operator="over"
         result="composite2"
         id="feComposite14457" />
    </filter>
    <filter
       style="color-interpolation-filters:sRGB"
       inkscape:label="Drop Shadow"
       id="filter8614">
      <feFlood
         flood-opacity="0.498039"
         flood-color="rgb(0,0,0)"
         result="flood"
         id="feFlood8616" />
      <feComposite
         in="flood"
         in2="SourceGraphic"
         operator="in"
         result="composite1"
         id="feComposite8618" />
      <feGaussianBlur
         in="composite1"
         stdDeviation="3"
         result="blur"
         id="feGaussianBlur8620" />
      <feOffset
         dx="-6.38378e-16"
         dy="5"
         result="offset"
         id="feOffset8622" />
      <feComposite
         in="SourceGraphic"
         in2="offset"
         operator="over"
         result="fbSourceGraphic"
         id="feComposite8624" />
      <feColorMatrix
         result="fbSourceGraphicAlpha"
         in="fbSourceGraphic"
         values="0 0 0 -1 0 0 0 0 -1 0 0 0 0 -1 0 0 0 0 1 0"
         id="feColorMatrix8764" />
      <feFlood
         id="feFlood8766"
         flood-opacity="0.498039"
         flood-color="rgb(0,0,0)"
         result="flood"
         in="fbSourceGraphic" />
      <feComposite
         id="feComposite8768"
         in2="fbSourceGraphic"
         in="flood"
         operator="in"
         result="composite1" />
      <feGaussianBlur
         id="feGaussianBlur8770"
         in="composite1"
         stdDeviation="3"
         result="blur" />
      <feOffset
         id="feOffset8772"
         dx="-6.38378e-16"
         dy="6"
         result="offset" />
      <feComposite
         id="feComposite8774"
         in2="offset"
         in="fbSourceGraphic"
         operator="over"
         result="composite2" />
    </filter>
    <filter
       style="color-interpolation-filters:sRGB"
       inkscape:label="Drop Shadow"
       id="filter8752">
      <feFlood
         flood-opacity="0.498039"
         flood-color="rgb(0,0,0)"
         result="flood"
         id="feFlood8754" />
      <feComposite
         in="flood"
         in2="SourceGraphic"
         operator="in"
         result="composite1"
         id="feComposite8756" />
      <feGaussianBlur
         in="composite1"
         stdDeviation="3"
         result="blur"
         id="feGaussianBlur8758" />
      <feOffset
         dx="-6.38378e-16"
         dy="5"
         result="offset"
         id="feOffset8760" />
      <feComposite
         in="SourceGraphic"
         in2="offset"
         operator="over"
         result="composite2"
         id="feComposite8762" />
    </filter>
    <filter
       style="color-interpolation-filters:sRGB"
       inkscape:label="Drop Shadow"
       id="filter8723">
      <feFlood
         flood-opacity="0.498039"
         flood-color="rgb(0,0,0)"
         result="flood"
         id="feFlood8725" />
      <feComposite
         in="flood"
         in2="SourceGraphic"
         operator="in"
         result="composite1"
         id="feComposite8727" />
      <feGaussianBlur
         in="composite1"
         stdDeviation="3"
         result="blur"
         id="feGaussianBlur8729" />
      <feOffset
         dx="-6.38378e-16"
         dy="5"
         result="offset"
         id="feOffset8731" />
      <feComposite
         in="SourceGraphic"
         in2="offset"
         operator="over"
         result="composite2"
         id="feComposite8733" />
    </filter>
    <filter
       style="color-interpolation-filters:sRGB"
       inkscape:label="Drop Shadow"
       id="filter8735">
      <feFlood
         flood-opacity="0.498039"
         flood-color="rgb(0,0,0)"
         result="flood"
         id="feFlood8737" />
      <feComposite
         in="flood"
         in2="SourceGraphic"
         operator="in"
         result="composite1"
         id="feComposite8739" />
      <feGaussianBlur
         in="composite1"
         stdDeviation="3"
         result="blur"
         id="feGaussianBlur8741" />
      <feOffset
         dx="-6.38378e-16"
         dy="5"
         result="offset"
         id="feOffset8743" />
      <feComposite
         in="SourceGraphic"
         in2="offset"
         operator="over"
         result="composite2"
         id="feComposite8745" />
    </filter>
    <filter
       style="color-interpolation-filters:sRGB"
       inkscape:label="Drop Shadow"
       id="filter9026">
      <feFlood
         flood-opacity="0.498039"
         flood-color="rgb(0,0,0)"
         result="flood"
         id="feFlood9028" />
      <feComposite
         in="flood"
         in2="SourceGraphic"
         operator="in"
         result="composite1"
         id="feComposite9030" />
      <feGaussianBlur
         in="composite1"
         stdDeviation="3"
         result="blur"
         id="feGaussianBlur9032" />
      <feOffset
         dx="-6.38378e-16"
         dy="6"
         result="offset"
         id="feOffset9034" />
      <feComposite
         in="SourceGraphic"
         in2="offset"
         operator="over"
         result="composite2"
         id="feComposite9036" />
    </filter>
  </defs>
  <sodipodi:namedview
     id="base"
     pagecolor="#ffffff"
     bordercolor="#666666"
     borderopacity="1.0"
     inkscape:pageopacity="0.0"
     inkscape:pageshadow="2"
     inkscape:zoom="1.979899"
     inkscape:cx="81.836216"
     inkscape:cy="63.356583"
     inkscape:document-units="px"
     inkscape:current-layer="layer1"
     showgrid="false"
     fit-margin-top="0"
     fit-margin-left="0"
     fit-margin-right="0"
     fit-margin-bottom="0"
     inkscape:window-width="1366"
     inkscape:window-height="660"
     inkscape:window-x="0"
     inkscape:window-y="0"
     inkscape:window-maximized="1" />
  <metadata
     id="metadata15629">
    <rdf:RDF>
      <cc:Work
         rdf:about="">
        <dc:format>image/svg+xml</dc:format>
        <dc:type
           rdf:resource="http://purl.org/dc/dcmitype/StillImage" />
        <dc:title></dc:title>
      </cc:Work>
    </rdf:RDF>
  </metadata>
  <g
     inkscape:label="Layer 1"
     inkscape:groupmode="layer"
     id="layer1"
     transform="translate(-293.16378,-395.51574)">
    <g
       transform="matrix(1.0902159,0,0,1.0902159,302.12528,326.80836)"
       id="g14429"
       style="filter:url(#filter14447)">
      <g
         style="filter:url(#filter8614)"
         transform="matrix(0.10822077,0,0,0.10822077,14.127029,78.29573)"
         id="g8604">
        <path
           inkscape:connector-curvature="0"
           style="fill:#5382a1"
           d="m 102.681,291.324 c 0,0 -14.178,8.245 10.09,11.035 29.4,3.354 44.426,2.873 76.825,-3.259 0,0 8.518,5.341 20.414,9.967 -72.63,31.128 -164.376,-1.803 -107.329,-17.743"
           id="path8582" />
        <path
           inkscape:connector-curvature="0"
           style="fill:#5382a1"
           d="m 93.806,250.704 c 0,0 -15.902,11.771 8.384,14.283 31.406,3.24 56.208,3.505 99.125,-4.759 0,0 5.936,6.018 15.27,9.309 -87.814,25.678 -185.623,2.025 -122.779,-18.833"
           id="path8584" />
        <path
           inkscape:connector-curvature="0"
           style="fill:#e76f00"
           d="m 168.625,181.799 c 17.896,20.604 -4.702,39.145 -4.702,39.145 0,0 45.441,-23.458 24.572,-52.833 -19.491,-27.394 -34.438,-41.005 46.479,-87.934 0,0 -127.013,31.722 -66.349,101.622"
           id="path8586" />
        <path
           inkscape:connector-curvature="0"
           style="fill:#5382a1"
           d="m 264.684,321.369 c 0,0 10.492,8.645 -11.555,15.333 -41.923,12.7 -174.488,16.535 -211.314,0.506 -13.238,-5.759 11.587,-13.751 19.396,-15.428 8.144,-1.766 12.798,-1.437 12.798,-1.437 -14.722,-10.371 -95.157,20.364 -40.857,29.166 148.084,24.015 269.943,-10.814 231.532,-28.14"
           id="path8588" />
        <path
           inkscape:connector-curvature="0"
           style="fill:#5382a1"
           d="m 109.499,208.617 c 0,0 -67.431,16.016 -23.879,21.832 18.389,2.462 55.047,1.905 89.193,-0.956 27.906,-2.354 55.927,-7.359 55.927,-7.359 0,0 -9.84,4.214 -16.959,9.075 -68.475,18.009 -200.756,9.631 -162.674,-8.79 32.206,-15.568 58.392,-13.802 58.392,-13.802"
           id="path8590" />
        <path
           inkscape:connector-curvature="0"
           style="fill:#5382a1"
           d="m 230.462,276.231 c 69.608,-36.171 37.424,-70.931 14.96,-66.248 -5.506,1.146 -7.961,2.139 -7.961,2.139 0,0 2.044,-3.202 5.948,-4.588 44.441,-15.624 78.619,46.081 -14.346,70.52 0,0.001 1.077,-0.962 1.399,-1.823"
           id="path8592" />
        <path
           inkscape:connector-curvature="0"
           style="fill:#e76f00"
           d="m 188.495,4.399 c 0,0 38.55,38.563 -36.563,97.862 -60.233,47.568 -13.735,74.69 -0.025,105.678 C 116.748,176.217 90.946,148.292 108.256,122.302 133.663,84.151 204.049,65.654 188.495,4.399"
           id="path8594" />
        <path
           inkscape:connector-curvature="0"
           style="fill:#5382a1"
           d="m 116.339,374.246 c 66.815,4.277 169.417,-2.373 171.847,-33.988 0,0 -4.671,11.985 -55.219,21.503 -57.028,10.732 -127.364,9.479 -169.081,2.601 10e-4,-0.001 8.54,7.068 52.453,9.884"
           id="path8596" />
      </g>
      <g
         transform="matrix(0.39721433,0,0,0.39721433,11.926724,121.89354)"
         style="filter:url(#filter8752)"
         id="g8747">
        <rect
           style="fill:#3c790a"
           y="-11.59494"
           x="114.71014"
           height="97.630592"
           width="97.630592"
           id="rect8703" />
        <path
           style="fill:#ffffff;filter:url(#filter8723)"
           inkscape:connector-curvature="0"
           d="m 147.56361,65.424752 c 1.70466,2.634477 3.09938,4.804046 6.19877,4.804046 2.94441,0 4.95901,-1.239754 4.95901,-5.733861 l 0,-31.148809 9.14319,0 0,31.303778 c 0,9.453122 -5.5789,13.792259 -13.63729,13.792259 -7.28356,0 -11.62269,-3.87423 -13.79226,-8.368337"
           id="path8705" />
        <path
           style="fill:#ffffff;filter:url(#filter8735)"
           inkscape:connector-curvature="0"
           d="m 180.26211,64.649906 c 2.0146,3.254354 4.49411,5.578892 8.98822,5.578892 3.87423,0 6.19876,-1.859631 6.19876,-4.494107 0,-3.099384 -2.4795,-4.184169 -6.66367,-6.043799 l -2.32454,-0.929815 c -6.66368,-2.789446 -11.00281,-6.353737 -11.00281,-13.792259 0,-6.818645 5.26895,-12.087598 13.48232,-12.087598 5.88883,0 10.07299,2.0146 13.01741,7.283553 l -7.12858,4.649076 c -1.5497,-2.789446 -3.25436,-3.87423 -5.88883,-3.87423 -2.63448,0 -4.33914,1.704661 -4.33914,3.87423 0,2.789445 1.70466,3.87423 5.57889,5.578891 l 2.32454,0.929815 c 7.74846,3.409323 12.24257,6.818645 12.24257,14.412136 0,8.213367 -6.50871,12.707474 -15.18699,12.707474 -8.5233,0 -14.10219,-4.029199 -16.73667,-9.298152"
           id="path8707" />
      </g>
      <g
         style="fill:#8cc84b;filter:url(#filter9026)"
         transform="matrix(0.16312547,0,0,0.16312548,10.867728,155.17442)"
         id="g9011">
        <path
           inkscape:connector-curvature="0"
           d="m 116.50415,3.5803774 c 6.96151,-3.9849057 16.03019,-4.00301891 22.98566,0 34.99472,19.7735846 70.00151,39.5169806 104.99019,59.3026416 6.58113,3.70717 10.98264,11.030943 10.91623,18.61434 l 0,118.967551 c 0.0483,7.89735 -4.78793,15.39622 -11.73132,19.01886 -34.88,19.66491 -69.74189,39.35397 -104.61585,59.01887 -7.10642,4.0634 -16.35623,3.74943 -23.23925,-0.64604 -10.45736,-6.06188 -20.932829,-12.09358 -31.390187,-18.14943 -2.137359,-1.27396 -4.546415,-2.2883 -6.055849,-4.35925 1.334339,-1.79924 3.719245,-2.02264 5.657358,-2.80754 4.365283,-1.38868 8.37434,-3.61661 12.383396,-5.77812 1.01434,-0.69434 2.252076,-0.42868 3.224151,0.19321 8.941891,5.12604 17.805281,10.40302 26.777361,15.48076 1.91396,1.1049 3.85207,-0.36227 5.4883,-1.27397 34.22792,-19.3449 68.49811,-38.61735 102.72,-57.9683 1.26792,-0.60981 1.9683,-1.95622 1.86566,-3.3449 0.0242,-39.24529 0.006,-78.49661 0.0121,-117.74189 0.14491,-1.575849 -0.76679,-3.024906 -2.19169,-3.670944 C 199.54113,58.861887 164.8,39.257359 130.04679,19.676981 c -1.24377,-0.845283 -2.84981,-0.851321 -4.09358,-0.006 C 91.2,39.257359 56.464906,58.88 21.711698,78.45434 c -1.418868,0.646037 -2.37283,2.070943 -2.203773,3.65283 0.006,39.24528 0,78.4966 0,117.74792 -0.120755,1.38868 0.627924,2.70491 1.889811,3.30265 9.273962,5.25886 18.56,10.4815 27.84,15.72226 5.228679,2.81359 11.646792,4.48604 17.406792,2.33057 5.083774,-1.8234 8.646038,-7.00982 8.549434,-12.40755 0.0483,-39.01585 -0.02415,-78.03774 0.03623,-117.047548 -0.126793,-1.73283 1.515471,-3.163774 3.2,-3.000755 4.455849,-0.03019 8.917736,-0.06038 13.373585,0.01207 1.859622,-0.04226 3.139622,1.823397 2.910188,3.568302 -0.01811,39.263391 0.0483,78.526791 -0.03019,117.790181 0.01207,10.4634 -4.286793,21.85057 -13.965283,26.97057 -11.924529,6.1766 -26.662642,4.86641 -38.442265,-1.05661 C 32.078491,230.94943 22.34566,224.94189 12.329057,219.48981 5.3675472,215.88528 0.5554717,208.35623 0.60377358,200.46491 l 0,-118.967551 C 0.53132075,73.756981 5.1079245,66.300377 11.89434,62.647547 46.768302,42.964528 81.636226,23.269434 116.50415,3.5803774 l 0,0 z"
           id="path9013" />
        <path
           inkscape:connector-curvature="0"
           d="m 146.9283,85.989434 c 15.20906,-0.978113 31.49283,-0.579623 45.18038,6.913208 10.59623,5.741886 16.47094,17.793208 16.65811,29.566788 -0.29585,1.58793 -1.95622,2.4634 -3.4717,2.35472 -4.41358,-0.006 -8.82717,0.0604 -13.24075,-0.0302 -1.8717,0.0725 -2.95849,-1.65434 -3.19396,-3.30868 -1.26793,-5.6332 -4.34114,-11.21207 -9.64227,-13.92905 -8.13887,-4.07547 -17.57585,-3.87019 -26.45132,-3.78566 -6.47849,0.34415 -13.44604,0.90566 -18.93434,4.71547 -4.21434,2.88603 -5.49434,8.71245 -3.99094,13.40377 1.41887,3.36906 5.30717,4.45585 8.48906,5.45812 18.33056,4.79396 37.75396,4.31698 55.73434,10.62641 7.44452,2.57207 14.72603,7.57132 17.27396,15.36604 3.33283,10.44528 1.8717,22.93132 -5.56076,31.31773 -6.02566,6.90113 -14.80452,10.65661 -23.55924,12.69736 -11.6468,2.59623 -23.73434,2.66264 -35.56227,1.50944 -11.12151,-1.26793 -22.69584,-4.19019 -31.28151,-11.76755 -7.34188,-6.37585 -10.9283,-16.30793 -10.57207,-25.89585 0.0845,-1.61811 1.6966,-2.74717 3.2483,-2.61434 4.44377,-0.0362 8.88755,-0.0483 13.33132,0.006 1.7751,-0.1268 3.09132,1.40679 3.18189,3.07924 0.82113,5.36755 2.83773,11.00076 7.51698,14.18264 9.03245,5.82642 20.36528,5.42793 30.70792,5.59095 8.56755,-0.38038 18.18566,-0.4951 25.17736,-6.15849 3.68906,-3.23019 4.78189,-8.63397 3.78566,-13.28302 -1.08075,-3.92453 -5.18641,-5.75396 -8.71245,-6.94944 -18.09509,-5.72377 -37.73585,-3.64679 -55.65585,-10.11924 -7.27547,-2.57208 -14.30943,-7.43245 -17.1049,-14.90717 -3.90038,-10.57811 -2.11321,-23.66189 6.09811,-31.764529 8.00604,-8.060377 19.56226,-11.163774 30.55094,-12.274717 l 0,0 z"
           id="path9015" />
      </g>
    </g>
  </g>
</svg>
