<?xml version="1.0" encoding="UTF-8" standalone="no"?>
<!-- Generator: Adobe Illustrator 16.0.0, SVG Export Plug-In . SVG Version: 6.00 Build 0)  -->

<svg
   xmlns:dc="http://purl.org/dc/elements/1.1/"
   xmlns:cc="http://creativecommons.org/ns#"
   xmlns:rdf="http://www.w3.org/1999/02/22-rdf-syntax-ns#"
   xmlns:svg="http://www.w3.org/2000/svg"
   xmlns="http://www.w3.org/2000/svg"
   xmlns:sodipodi="http://sodipodi.sourceforge.net/DTD/sodipodi-0.dtd"
   xmlns:inkscape="http://www.inkscape.org/namespaces/inkscape"
   version="1.1"
   id="Capa_1"
   x="0px"
   y="0px"
   width="880.2063"
   height="880.2063"
   viewBox="0 0 753.91045 753.91045"
   xml:space="preserve"
   inkscape:version="0.91 r13725"
   sodipodi:docname="linkedin.svg"><metadata
     id="metadata41"><rdf:RDF><cc:Work
         rdf:about=""><dc:format>image/svg+xml</dc:format><dc:type
           rdf:resource="http://purl.org/dc/dcmitype/StillImage" /><dc:title></dc:title></cc:Work></rdf:RDF></metadata><defs
     id="defs39" /><sodipodi:namedview
     pagecolor="#ffffff"
     bordercolor="#666666"
     borderopacity="1"
     objecttolerance="10"
     gridtolerance="10"
     guidetolerance="10"
     inkscape:pageopacity="0"
     inkscape:pageshadow="2"
     inkscape:window-width="1366"
     inkscape:window-height="663"
     id="namedview37"
     showgrid="false"
     fit-margin-top="0"
     fit-margin-left="0"
     fit-margin-right="0"
     fit-margin-bottom="0"
     inkscape:zoom="0.057617188"
     inkscape:cx="441.18731"
     inkscape:cy="435.76457"
     inkscape:window-x="0"
     inkscape:window-y="0"
     inkscape:window-maximized="1"
     inkscape:current-layer="Capa_1" /><g
     id="g3"
     transform="translate(155.82852,161.40327)"><path
       d="M 414.41,24.123 C 398.333,8.042 378.963,0 356.315,0 L 82.228,0 C 59.58,0 40.21,8.042 24.126,24.123 8.045,40.207 0.003,59.576 0.003,82.225 l 0,274.084 c 0,22.647 8.042,42.018 24.123,58.102 16.084,16.084 35.454,24.126 58.102,24.126 l 274.084,0 c 22.648,0 42.018,-8.042 58.095,-24.126 16.084,-16.084 24.126,-35.454 24.126,-58.102 l 0,-274.084 C 438.532,59.576 430.49,40.204 414.41,24.123 Z m -280.792,343.034 -65.952,0 0,-198.141 65.952,0 0,198.141 z m -5.992,-234.825 c -6.851,6.567 -15.893,9.851 -27.124,9.851 l -0.288,0 c -10.848,0 -19.648,-3.284 -26.407,-9.851 -6.76,-6.567 -10.138,-14.703 -10.138,-24.41 0,-9.897 3.476,-18.083 10.421,-24.556 6.95,-6.471 15.942,-9.708 26.98,-9.708 11.039,0 19.89,3.237 26.553,9.708 6.661,6.473 10.088,14.659 10.277,24.556 -0.001,9.703 -3.423,17.839 -10.274,24.41 z m 243.247,234.825 -65.952,0 0,-105.92 c 0,-29.879 -11.036,-44.823 -33.116,-44.823 -8.374,0 -15.42,2.331 -21.128,6.995 -5.715,4.661 -9.996,10.324 -12.847,16.991 -1.335,3.422 -1.999,8.75 -1.999,15.981 l 0,110.775 -65.952,0 c 0.571,-119.529 0.571,-185.579 0,-198.142 l 65.952,0 0,27.974 c 13.867,-21.681 33.558,-32.544 59.101,-32.544 22.84,0 41.21,7.52 55.104,22.554 13.895,15.037 20.841,37.214 20.841,66.519 l 0,113.64 -0.004,0 z"
       id="path5"
       inkscape:connector-curvature="0"
       style="fill:#ffffff" /></g><g
     id="g7"
     transform="translate(155.82852,161.40327)" /><g
     id="g9"
     transform="translate(155.82852,161.40327)" /><g
     id="g11"
     transform="translate(155.82852,161.40327)" /><g
     id="g13"
     transform="translate(155.82852,161.40327)" /><g
     id="g15"
     transform="translate(155.82852,161.40327)" /><g
     id="g17"
     transform="translate(155.82852,161.40327)" /><g
     id="g19"
     transform="translate(155.82852,161.40327)" /><g
     id="g21"
     transform="translate(155.82852,161.40327)" /><g
     id="g23"
     transform="translate(155.82852,161.40327)" /><g
     id="g25"
     transform="translate(155.82852,161.40327)" /><g
     id="g27"
     transform="translate(155.82852,161.40327)" /><g
     id="g29"
     transform="translate(155.82852,161.40327)" /><g
     id="g31"
     transform="translate(155.82852,161.40327)" /><g
     id="g33"
     transform="translate(155.82852,161.40327)" /><g
     id="g35"
     transform="translate(155.82852,161.40327)" /><path
     style="opacity:1;fill:#ffffff;fill-opacity:1"
     d="M 376.95431,0 A 376.95513,376.95513 0 0 0 0,376.9543 376.95513,376.95513 0 0 0 376.95431,753.91045 376.95513,376.95513 0 0 0 753.91046,376.9543 376.95513,376.95513 0 0 0 376.95431,0 Z m -1.02362,31.389036 A 346.59087,346.59087 0 0 1 722.52141,377.97976 346.59087,346.59087 0 0 1 375.93069,724.57048 346.59087,346.59087 0 0 1 29.339961,377.97976 346.59087,346.59087 0 0 1 375.93069,31.389036 Z"
     id="path4169"
     inkscape:connector-curvature="0" /></svg>